<svg width="200" height="55" viewBox="0 0 200 55" fill="none" xmlns="http://www.w3.org/2000/svg">
<path d="M27.3234 5.89722V30.9883L6.03465 45.879C4.09931 43.5795 3.98547 40.0958 6.14849 36.2023L13.2523 23.4291L19.9463 11.3845C21.9727 7.74148 24.6367 5.89722 27.3234 5.89722Z" fill="#010043"/>
<path d="M48.6128 45.879C47.1326 47.6775 44.5599 48.7478 41.1217 48.7478H13.526C10.088 48.7478 7.51512 47.6775 6.03516 45.879L27.3239 30.9883L48.6128 45.879Z" fill="#6698FF"/>
<path d="M48.6112 45.879L27.3223 30.9883V5.89722C30.009 5.89722 32.6729 7.74148 34.6993 11.3845L41.3933 23.4291L48.4971 36.2023C50.66 40.0958 50.5463 43.5795 48.6112 45.879Z" fill="#A7EBD1"/>
<path d="M72.9594 37.5229H68.9182V20.4748H63.041V16.9884H78.8366V20.4748H72.9594V37.5229ZM88.0662 29.9665H85.1346V37.5229H81.1073V16.9884H88.5641C93.0323 16.9884 95.7645 19.4645 95.7645 23.5344C95.7645 26.1954 94.3558 28.4154 92.1215 29.2977L96.2341 37.5229H91.6804L88.0662 29.9665ZM85.1346 20.2898V26.8643H87.9948C90.2858 26.8643 91.6519 25.6262 91.6519 23.5486C91.6519 21.5136 90.3142 20.2898 88.0374 20.2898H85.1346ZM111.497 37.5229H98.9459V34.0507H103.201V20.4606H98.9459V16.9884H111.497V20.4606H107.242V34.0507H111.497V37.5229ZM130.261 28.8281C130.261 34.5345 127.287 37.9356 122.363 37.9356C117.439 37.9356 114.465 34.5345 114.465 28.8281V25.6832C114.465 19.9767 117.439 16.5757 122.363 16.5757C127.287 16.5757 130.261 19.9767 130.261 25.6832V28.8281ZM122.363 34.3495C124.839 34.3495 126.148 32.4853 126.148 28.7854V25.7258C126.148 22.0259 124.839 20.1618 122.363 20.1618C119.887 20.1618 118.578 22.0259 118.578 25.7258V28.7854C118.578 32.4853 119.887 34.3495 122.363 34.3495ZM141.525 37.5229H137.484V20.4748H131.606V16.9884H147.402V20.4748H141.525V37.5229ZM163.405 34.0364V37.5229H150.456V16.9884H163.405V20.4748H154.511V25.5266H162.879V28.7569H154.511V34.0364H163.405ZM174.242 34.3068C176.363 34.3068 177.686 32.8268 177.729 30.4361H181.828C181.828 35.0895 178.924 37.9356 174.257 37.9356C169.177 37.9356 166.188 34.7622 166.188 29.3546V25.1566C166.188 19.7491 169.177 16.5757 174.257 16.5757C178.981 16.5757 181.785 19.4075 181.813 24.2601H177.715C177.672 21.7982 176.277 20.2044 174.186 20.2044C171.695 20.2044 170.386 21.9121 170.386 25.1566V29.3546C170.386 32.6134 171.695 34.3068 174.242 34.3068ZM198.257 37.5229H194.287V28.8423H187.57V37.5229H183.6V16.9884H187.57V25.3559H194.287V16.9884H198.257V37.5229Z" fill="#14151C"/>
</svg>
